<?xml version="1.0" encoding="UTF-8" standalone="no"?>
<!-- Created with Inkscape (http://www.inkscape.org/) -->

<svg
   xmlns:dc="http://purl.org/dc/elements/1.1/"
   xmlns:cc="http://creativecommons.org/ns#"
   xmlns:rdf="http://www.w3.org/1999/02/22-rdf-syntax-ns#"
   xmlns:svg="http://www.w3.org/2000/svg"
   xmlns="http://www.w3.org/2000/svg"
   xmlns:sodipodi="http://sodipodi.sourceforge.net/DTD/sodipodi-0.dtd"
   xmlns:inkscape="http://www.inkscape.org/namespaces/inkscape"
   width="80"
   height="80"
   id="svg2985"
   version="1.1"
   inkscape:version="0.48.5 r10040"
   sodipodi:docname="c_b.svg">
  <defs
     id="defs2987" />
  <sodipodi:namedview
     id="base"
     pagecolor="#ffffff"
     bordercolor="#666666"
     borderopacity="1.0"
     inkscape:pageopacity="0.0"
     inkscape:pageshadow="2"
     inkscape:zoom="4.3574481"
     inkscape:cx="53.746594"
     inkscape:cy="33.937329"
     inkscape:current-layer="layer1"
     showgrid="true"
     inkscape:document-units="px"
     inkscape:grid-bbox="true"
     inkscape:window-width="1600"
     inkscape:window-height="837"
     inkscape:window-x="-8"
     inkscape:window-y="-8"
     inkscape:window-maximized="1" />
  <metadata
     id="metadata2990">
    <rdf:RDF>
      <cc:Work
         rdf:about="">
        <dc:format>image/svg+xml</dc:format>
        <dc:type
           rdf:resource="http://purl.org/dc/dcmitype/StillImage" />
        <dc:title />
      </cc:Work>
    </rdf:RDF>
  </metadata>
  <g
     id="layer1"
     inkscape:label="Layer 1"
     inkscape:groupmode="layer"
     transform="translate(0,16)">
    <path
       style="fill:#ff0000;stroke:none"
       d=""
       id="path3001"
       inkscape:connector-curvature="0" />
    <path
       style="fill:none;stroke:#0000ff;stroke-width:0.21235262;stroke-opacity:1"
       d=""
       id="path2991"
       inkscape:connector-curvature="0"
       transform="translate(0,-16)" />
    <path
       style="fill:#008000;stroke:#008000;stroke-width:0.84393686000000001;stroke-opacity:1"
       id="path3080"
       d="m 37.250038,0.27161023 c -0.674372,-0.038769 -1.344016,-0.0108 -2.015194,0.051054 -0.805106,0.080047 -1.614414,0.087912 -2.422725,0.093756 -0.977482,0.076699 -1.955655,0.1316148 -2.935773,0.1599315 -0.922098,0.018788 -1.84451,0.02812 -2.766811,0.034162 -0.695044,0.0031 -1.006171,0.1932672 -1.583018,0.49002817 -0.604779,0.1989232 -1.17693,0.472332 -1.755371,0.7375287 -0.224359,0.097491 -0.440957,0.2114057 -0.664091,0.3114514 -0.106811,0.047891 -0.42481,0.1952618 -0.323428,0.1369637 7.216229,-4.1495541 5.142087,-2.96844647 3.67962,-2.05284767 -0.411804,0.251682 -0.786399,0.5434752 -1.143047,0.86535987 -0.298846,0.2371544 -0.628037,0.4256771 -0.940105,0.6440142 -0.314063,0.2283778 -0.629733,0.4534131 -0.960747,0.6586594 -0.344065,0.2219874 -0.693225,0.429523 -0.995811,0.7064344 -0.310005,0.2571182 -0.584991,0.5506266 -0.857584,0.8459678 -0.378363,0.4137778 -0.874799,0.6907589 -1.302705,1.0502464 -0.532063,0.4990945 -0.904554,1.1327484 -1.293266,1.7407099 -0.454805,0.7360479 -0.88196,1.4879099 -1.292602,2.2487359 -0.362345,0.549577 -0.618444,1.1318291 -0.797557,1.7607041 -0.140616,0.460569 -0.313989,0.909207 -0.529898,1.340083 -0.198333,0.399207 -0.318874,0.827957 -0.444144,1.253178 -0.09848,0.450969 -0.311975,0.864599 -0.440211,1.306351 -0.112471,0.387443 -0.117038,0.478954 -0.187223,0.879412 -0.133475,0.952457 -0.229491,1.908587 -0.278106,2.868876 -0.0327,0.713456 -0.04084,1.427792 -0.04518,2.141891 -0.04242,0.631898 0.04674,1.247226 0.176384,1.862985 0.138071,0.754188 0.143731,1.519611 0.245944,2.278955 0.117581,0.769603 0.263925,1.534567 0.440443,2.2929 0.09681,0.572915 0.230044,1.136172 0.394566,1.693524 0.186048,0.661676 0.318588,1.336368 0.486739,2.002603 0.248491,0.596736 0.447562,1.217372 0.747775,1.791911 0.289805,0.607587 0.663084,1.170259 1.058127,1.715202 0.485006,0.585518 0.915347,1.20928 1.402986,1.793506 0.256729,0.353561 0.648619,0.568239 0.982808,0.84001 0.190362,0.154809 0.454959,0.406806 0.632543,0.572029 0.71088,0.659467 1.345302,1.393003 2.031431,2.075416 0.511193,0.493604 1.146621,0.852792 1.78775,1.156566 0.132162,0.05188 0.266947,0.09766 0.396485,0.155652 0.29529,0.132198 0.576808,0.292904 0.870191,0.429189 0.429451,0.199494 0.87028,0.373193 1.301102,0.570026 0.94134,0.359946 1.859383,0.770054 2.811244,1.102739 0.982662,0.345756 1.992714,0.609674 2.97788,0.947535 0.616072,0.264182 1.27219,0.362465 1.923499,0.494967 0.829791,0.132821 1.671024,0.177138 2.507696,0.253545 1.045937,0.08898 2.095958,0.111301 3.145201,0.12148 0.781074,0.04385 1.571914,-0.06821 2.349327,0.02209 0.490669,0.115903 0.926621,0.06882 1.417551,0.01912 0.533188,-0.05227 1.070211,-0.04757 1.605442,-0.05056 0.610091,0.03389 1.207079,-0.05801 1.775862,-0.275585 0.07976,-0.02873 0.162813,-0.04977 0.239303,-0.08618 0.124635,-0.07803 0.225083,-0.146872 0.358502,-0.208381 0.182699,-0.08422 0.37543,-0.152251 0.559625,-0.234255 0.07133,-0.03968 0.284996,-0.159309 0.214014,-0.119018 -1.401774,0.795666 -2.802317,1.593467 -4.206395,2.38515 -0.06459,0.03642 0.123436,-0.08219 0.18767,-0.119211 9.035283,-5.20817 2.639614,-1.841687 5.013659,-2.770519 0.06585,-0.03461 0.262226,-0.140522 0.197533,-0.103847 -1.412589,0.800829 -5.607441,3.272443 -4.241313,2.396357 2.013145,-1.291014 3.384577,-2.142457 5.295502,-2.921139 0.241468,-0.107067 0.509752,-0.134468 0.752992,-0.236008 0.214369,-0.08948 0.407894,-0.202024 0.629052,-0.280073 0.377788,-0.07949 0.736084,-0.207153 1.12013,-0.260331 0.04774,-0.02345 0.09314,-0.05229 0.143218,-0.07033 0.05561,-0.02004 0.117607,-0.02041 0.172092,-0.04327 0.205576,-0.08628 0.389653,-0.226905 0.595301,-0.317372 0.29257,-0.251214 0.7027,-0.203259 1.028674,-0.359845 0.176392,-0.183231 0.430131,-0.183139 0.646344,-0.290222 0.37313,-0.184801 -0.02298,-0.03243 0.403838,-0.180315 1.518122,-0.880487 3.478418,-1.95104 -3.81219,2.165951 -0.06284,0.03548 0.120105,-0.07984 0.180376,-0.11943 0.278654,-0.183054 0.07984,-0.0484 0.356499,-0.238864 0.428052,-0.3161 0.835494,-0.657772 1.225991,-1.018076 0.511412,-0.439585 0.907024,-0.989197 1.312229,-1.521533 0.330229,-0.467986 0.716731,-0.892045 1.072227,-1.340087 0.34649,-0.392763 0.587246,-0.855088 0.788055,-1.33305 0.266269,-0.742682 0.579995,-1.466736 0.819747,-2.218698 0.200943,-0.651107 0.373734,-1.309789 0.54329,-1.969332 0.168756,-0.559626 0.333777,-1.120756 0.478121,-1.687092 0.08911,-0.582565 0.236993,-1.146849 0.412222,-1.709329 0.162515,-0.570106 0.27456,-1.153731 0.401649,-1.732599 0.172451,-0.609911 0.296966,-1.229816 0.427095,-1.849419 0.118564,-0.560705 0.160459,-1.132119 0.180341,-1.70332 0.03054,-0.448662 0.107137,-0.892384 0.147098,-1.340494 0.03777,-0.412091 0.05083,-0.825461 0.007,-1.237115 -0.07343,-0.530988 -0.0825,-1.067552 -0.135146,-1.600215 -0.09598,-0.517678 -0.137929,-1.039943 -0.15306,-1.565346 -0.0059,-0.981059 -0.177977,-1.951357 -0.318838,-2.919791 -0.116908,-0.776041 -0.147775,-1.562922 -0.321427,-2.329903 -0.103915,-0.472151 -0.314796,-0.90982 -0.449,-1.372025 C 60.567635,11.313956 60.373431,10.692744 60.121383,10.092833 59.857114,9.4497109 59.577804,8.8151599 59.260022,8.1963329 59.080766,7.9800679 59.002463,7.6853759 58.80957,7.4799139 58.77419,7.4422339 58.72744,7.4168439 58.686375,7.3853139 58.632545,7.3190539 58.578723,7.2527949 58.524896,7.186536 58.216749,6.8163776 57.988452,6.3996028 57.649832,6.0548485 57.31739,5.7651658 56.955127,5.5210488 56.675011,5.1788791 56.401835,4.8805799 56.074511,4.6376638 55.788473,4.3516272 55.24239,3.9038265 54.71393,3.4281454 54.149774,2.9993223 53.529636,2.5195293 52.789532,2.2403286 52.12307,1.8365552 51.566338,1.5354214 50.951457,1.379277 50.399951,1.067422 50.019915,0.86025753 49.685673,0.57428893 49.284293,0.40592213 c -0.199675,-0.0837566 -0.406664,-0.1495343 -0.607428,-0.2307089 -0.459769,-0.1913456 -0.953724,-0.2441666 -1.446957,-0.2644021 -0.488924,-0.010246 -0.978026,-0.0067105 -1.467029,-0.0067941 -0.296247,-0.0669311 -0.612293,-0.058003 -0.907776,-0.1254513 -0.120701,-0.0275585 -0.234233,-0.079838 -0.351841,-0.1183057 -0.553242,-0.0793595 -1.105139,-0.0852418 -1.651038,-0.2140248 -0.469286,-0.1281332 -0.946921,-0.2086256 -1.432458,-0.2361248 -0.57403,-0.0931201 -1.14551,-0.2007551 -1.722053,-0.27941393 -0.642413,-0.039517 -1.275635,-0.1519629 -1.915018,-0.2202178 -0.442161,-0.042973 -0.886888,-0.044375 -1.330704,-0.051038 -0.585445,-0.00377 -1.170956,-0.00479 -1.756414,-0.00109 -0.468189,0.00596 -0.936373,0.00671 -1.404584,0.00671 -0.447362,-0.00125 -0.894716,-5.203e-4 -1.34208,0.00125 -0.233156,1.998e-4 -0.48592,-0.019167 -0.70048,0.093967 -0.08049,0.042444 -0.143401,0.11267 -0.22261,0.1574241 -0.349015,0.079796 -0.69255,0.13459643 -1.035425,0.25043353 -0.576558,0.095745 -1.114563,0.3380326 -1.658009,0.5414646 -0.222226,0.078847 -0.462369,0.1424106 -0.675486,0.244665 -0.113422,0.054419 -0.214895,0.1309679 -0.327384,0.1872462 1.431904,-0.8127059 2.86381,-1.62541173 4.295716,-2.43811753 -1.69799,1.0822629 -3.366921,2.31635613 -5.277013,3.00488533 -0.674967,0.1415288 -1.315587,0.38161537 -1.971292,0.58771417 -0.349007,0.1588297 -0.178927,0.08482 -0.509763,0.2230952 0,0 4.043941,-3.146175 4.043941,-3.146175 l 0,0 c 0.323555,-0.1228868 0.153792,-0.062996 0.510021,-0.1776403 0.656732,-0.2136957 1.330532,-0.3827087 1.967678,-0.6488252 2.378523,-1.1980419 -5.682001,3.6335606 -3.584716,2.01806943 2.129546,-1.21887163 3.505305,-2.30963183 5.574814,-2.98766033 0.554769,-0.2050028 1.121428,-0.3704408 1.693055,-0.5220806 0.345682,-0.087111 0.701575,-0.1424571 1.013889,-0.3224425 0.332704,-0.1139311 0.691423,-0.054234 1.037569,-0.064746 0.446227,0.00176 0.892442,0.00247 1.338668,0.00103 0.462689,-2.275e-4 0.925356,-2.054e-4 1.388033,0.00464 0.588668,0.00246 1.177312,-0.0016 1.765981,0.00255 0.457432,0.00423 0.914057,0.023233 1.366223,0.098371 0.633361,0.093876 1.266902,0.1776304 1.904372,0.2395781 0.576227,0.090396 1.153129,0.1815264 1.733813,0.2387893 0.48635,0.063026 0.958725,0.1874796 1.436481,0.2946564 0.57238,0.084943 1.16022,0.066307 1.719707,0.2268732 0.370649,0.096622 0.762097,0.1284042 1.143885,0.1415966 0.500773,-0.00268 1.002942,-0.011233 1.502175,0.034655 0.524355,0.061949 1.036842,0.1865126 1.516455,0.4109252 0.614068,0.2594376 1.184271,0.580113 1.752104,0.9267345 0.574051,0.2685643 1.185119,0.462006 1.723953,0.80094743 0.690639,0.3945939 1.42177,0.726994 2.043192,1.2302802 0.57306,0.4575803 1.153272,0.90534417 1.725941,1.36309737 0.305288,0.2854172 0.641506,0.5404097 0.908214,0.8647086 0.295814,0.3139319 0.659075,0.5554065 0.965278,0.859902 0.32586,0.3622717 0.556021,0.7886814 0.881702,1.1514509 0.105846,0.1133162 0.221972,0.2177624 0.319429,0.3382097 0.193249,0.2388361 0.303353,0.5354369 0.467526,0.792122 0.298573,0.637312 0.56877,1.2847278 0.841741,1.9332717 0.274419,0.607751 0.512322,1.242375 0.645959,1.895576 0.133628,0.473099 0.35792,0.9180711 0.455337,1.4023751 0.175639,0.791844 0.162085,1.604686 0.265291,2.406762 0.111225,0.86158 0.307253,1.737138 0.397297,2.591782 0.01177,0.111635 0.0071,0.224371 0.01052,0.336557 0.02596,0.510018 0.06155,1.019282 0.150645,1.523086 0.07003,0.526731 0.05114,1.061966 0.143455,1.587101 0.06973,0.443482 0.07973,0.881897 0.0468,1.330615 -0.03287,0.445083 -0.08434,0.889172 -0.169252,1.327727 -0.02566,0.596966 -0.06368,1.194315 -0.164764,1.78421 -0.117686,0.621951 -0.231224,1.248349 -0.421292,1.853301 -0.121125,0.593378 -0.259857,1.181234 -0.378901,1.775029 -0.174825,0.551765 -0.381126,1.092515 -0.41841,1.674047 -0.130421,0.575376 -0.30417,1.141073 -0.479392,1.704265 -0.191275,0.665597 -0.351777,1.3404 -0.572897,1.99746 -0.211787,0.751646 -0.503092,1.475867 -0.775098,2.207784 -0.129167,0.546543 -0.399828,1.042414 -0.706309,1.511931 -0.247833,0.279432 -0.130091,0.1312 -0.351651,0.445912 -0.244601,0.29286 -0.536224,0.553105 -0.737683,0.881728 -0.425822,0.533456 -0.818905,1.094373 -1.273072,1.602618 -0.398433,0.347575 -0.765528,0.726262 -1.185777,1.048885 -0.169019,0.139134 -0.338496,0.279863 -0.529028,0.39026 -1.427432,0.827076 -3.268618,2.114189 -5.031853,2.84456 -0.354576,0.170109 -0.724652,0.319692 -1.092003,0.453475 -0.358171,0.0686 -0.660774,0.250761 -0.983251,0.411206 -0.309285,0.160867 -0.643637,0.275883 -0.989226,0.327751 -0.356103,0.09433 -0.714853,0.189016 -1.05591,0.327409 -0.445442,0.194502 -0.913243,0.322183 -1.35803,0.518359 -0.243872,0.110736 -0.231531,0.09997 -0.459361,0.222636 -0.07193,0.03873 -0.284855,0.159974 -0.214007,0.119347 8.723665,-5.002588 2.396843,-1.359123 -0.382817,0.200162 -0.06699,0.03758 -0.142848,0.05696 -0.214272,0.08544 -0.06842,0.02833 -0.139107,0.0518 -0.205251,0.085 -0.06244,0.03133 -0.239996,0.142759 -0.179418,0.108034 1.409153,-0.807777 2.814689,-1.621722 4.225181,-2.427207 0.06589,-0.03762 -0.12533,0.08561 -0.191084,0.123469 -1.535232,0.883927 -3.07027,1.768243 -4.611603,2.641729 -0.07403,0.04195 -0.155598,0.06932 -0.233397,0.103976 -0.390627,0.171435 -0.766497,0.376586 -1.188238,0.466232 -0.612476,0.126738 -1.222211,0.183099 -1.849248,0.158774 -0.537078,0.01458 -1.073199,0.04138 -1.608267,0.09072 -0.489839,0.02546 -0.969017,-0.02581 -1.454449,-0.09032 -0.755506,-0.02566 -1.511771,-0.02278 -2.267459,-0.0418 -1.058467,-0.02386 -2.117449,-0.05206 -3.172437,-0.146262 -0.861459,-0.07141 -1.730305,-0.09813 -2.579646,-0.269344 -0.668359,-0.124977 -1.321941,-0.302389 -1.94905,-0.567153 -0.967223,-0.347642 -1.953495,-0.640633 -2.925074,-0.976031 -0.975423,-0.31999 -1.910662,-0.746515 -2.864716,-1.123345 -0.867894,-0.375861 -1.721676,-0.780566 -2.588477,-1.158825 -0.694583,-0.337306 -1.375151,-0.72297 -1.891719,-1.305344 -0.647078,-0.703365 -1.276098,-1.425953 -2.008356,-2.047051 -0.560601,-0.489104 -1.21424,-0.885528 -1.685876,-1.462488 -0.472482,-0.603692 -0.897182,-1.240867 -1.392157,-1.826963 -0.420419,-0.564891 -0.824949,-1.14183 -1.147094,-1.767978 -0.285853,-0.618351 -0.482518,-1.273381 -0.758139,-1.896461 -0.187575,-0.653672 -0.320388,-1.319788 -0.500212,-1.975268 -0.181633,-0.56737 -0.33754,-1.139817 -0.410011,-1.731911 -0.16208,-0.777915 -0.295637,-1.561778 -0.41346,-2.347343 -0.0037,-0.02323 -0.142592,-0.894772 -0.146305,-0.926704 -0.05038,-0.433211 -0.04126,-0.87448 -0.138581,-1.302579 -0.123556,-0.650902 -0.268183,-1.292845 -0.206313,-1.961142 7.87e-4,-0.726664 0.0022,-1.453613 0.05319,-2.178976 0.07274,-0.972998 0.162995,-1.944325 0.269235,-2.914346 0.05923,-0.444525 0.110737,-0.887573 0.235866,-1.320018 0.204302,-0.706063 0.01566,-0.0041 0.235808,-0.611203 0.03173,-0.08751 0.04934,-0.179408 0.07401,-0.269111 0.09839,-0.453281 0.228519,-0.899401 0.390134,-1.334809 0.0908,-0.204354 0.223963,-0.387661 0.313268,-0.58464 0.102471,-0.226018 0.125733,-0.49011 0.274033,-0.698624 0.203372,-0.647219 0.340569,-1.319311 0.770517,-1.870324 0.439789,-0.754339 0.861605,-1.5190121 1.294511,-2.2769841 0.385705,-0.623358 0.754634,-1.257865 1.20542,-1.8385398 0.379558,-0.4097744 0.819641,-0.733851 1.302464,-1.0165745 0.277076,-0.2989553 0.534067,-0.6123124 0.824446,-0.8953464 0.322034,-0.2599109 0.584412,-0.5937637 0.976384,-0.7642359 0.169955,-0.1233978 0.342535,-0.2162074 0.520827,-0.324189 0.392297,-0.2375908 -0.0757,0.023287 0.281164,-0.2277047 0.04813,-0.033852 0.104429,-0.054596 0.156644,-0.081902 0.305676,-0.2371058 0.606361,-0.4634998 0.950252,-0.6440731 0.417143,-0.2551612 0.704112,-0.6693972 1.149014,-0.8907696 1.865297,-1.38750777 3.976562,-2.43897437 6.095511,-3.4009922 0.589271,-0.2684116 1.195997,-0.4952947 1.781894,-0.7701535 0.534718,-0.2375137 1.097522,-0.2934019 1.681553,-0.278422 0.911165,0.00177 1.822415,0.00445 2.733129,-0.029908 0.983011,-0.038836 1.963672,-0.1124006 2.946326,-0.1574527 0.811273,-0.023396 1.621815,-0.062635 2.430057,-0.1381083 0.694305,-0.04732 1.389191,-0.031233 2.084529,-0.050425 0,0 -4.178627,3.00168813 -4.178627,3.00168813 z"
       inkscape:connector-curvature="0" />
    <path
       style="fill:#008000;stroke:#008000;stroke-width:0.84393686000000001;stroke-opacity:1"
       id="path3082"
       d="m 13.291123,14.275894 c 0.23772,-0.58055 0.504319,-1.151628 0.815376,-1.697532 0.206202,-0.383986 0.464914,-0.735717 0.704364,-1.098791 0.207565,-0.241441 0.414505,-0.470652 0.576348,-0.747236 0.158281,-0.294122 0.253564,-0.623977 0.43807,-0.9026871 0.210442,-0.302825 0.320378,-0.64703 0.457312,-0.982887 0.123017,-0.31797 0.29367,-0.617955 0.491967,-0.896723 0.13789,-0.266506 0.315024,-0.506826 0.505662,-0.7387231 0.223743,-0.3536649 0.458062,-0.6968996 0.736213,-1.0108718 0.355447,-0.3907252 0.740873,-0.7505937 1.146273,-1.0896761 0.296375,-0.2253131 0.580507,-0.4671862 0.913497,-0.6380797 0.239814,-0.1314136 0.391628,-0.3776771 0.570004,-0.5802541 0.283558,-0.1790367 0.493359,-0.4376535 0.723469,-0.6733051 1.161814,-1.553149 2.183602,-1.0734601 4.752955,-2.88987157 1.333974,-0.943057 -5.78019,3.04275997 -4.262189,2.42932637 7.890089,-3.18843337 2.720662,-2.25058337 4.963767,-2.64258587 0.568968,-0.068022 1.119958,-0.2221545 1.686515,-0.3039022 0.10461,-0.071882 0.241176,-0.069264 0.350879,-0.1277565 0.04556,-0.024293 0.07741,-0.068358 0.119966,-0.097508 0.12996,-0.089039 0.265844,-0.1185407 0.417968,-0.1476806 0.588627,-0.016582 1.162914,-0.1728059 1.743523,-0.2615313 0.110277,-0.024076 0.222372,-0.041111 0.330832,-0.072227 0.188641,-0.054117 0.367498,-0.13749913 0.553614,-0.19957523 0.223702,-0.07461 0.447435,-0.1221751 0.666525,-0.2094118 -0.110092,0.1448677 0.4567,-0.2231767 0.34589,-0.1609621 -1.429462,0.80257473 -2.853935,1.61380613 -4.282295,2.41829663 -0.05074,0.028582 0.09875,-0.061712 0.149364,-0.090518 1.525918,-0.8684957 3.046169,-1.7468744 4.580163,-2.60135043 0.0629,-0.035035 0.137606,-0.043267 0.206409,-0.064901 0.10284,-0.023497 0.208024,-0.038584 0.308521,-0.070482 0.12024,-0.038174 0.23259,-0.097797 0.35176,-0.1391177 0.601162,-0.2084444 1.219766,-0.3539038 1.840838,-0.4894761 0.444871,-0.094006 0.902458,-0.099338 1.346004,-0.2007131 0.29763,-0.068025 0.590161,-0.178422 0.884278,-0.2611716 0.371935,-0.044455 0.692611,-0.2218107 1.061358,-0.2762671 0.218934,-0.018916 0.108767,-0.011435 0.33051,-0.022317 0,0 -4.150298,3.05731793 -4.150298,3.05731793 l 0,0 c -0.201621,0.039609 -0.102345,0.016632 -0.297901,0.068635 -0.337732,0.1102943 -0.677427,0.1905139 -1.023798,0.2709694 -0.720241,0.1854982 -1.458727,0.2517987 -2.185786,0.4052268 -0.856704,0.2103282 -1.697132,0.48312937 -2.511912,0.81941827 -1.630203,0.8822714 -0.412872,0.2253769 4.082794,-2.33951027 0.05086,-0.029019 -0.09967,0.061486 -0.15058,0.090426 -2.93203,1.6666615 -3.055175,2.13700957 -4.958903,2.71572207 -0.521227,0.1385489 -1.028119,0.3327375 -1.567953,0.3961034 -0.581524,0.1074412 -1.180861,0.1802108 -1.741947,0.3624363 -0.293214,0.1504415 -0.580676,0.272912 -0.918538,0.2901786 -0.545786,0.1010828 -1.095084,0.1941979 -1.631393,0.3362921 -0.09435,0.038039 -0.370844,0.1652678 -0.283054,0.114126 1.394288,-0.8122317 5.606869,-3.19853607 4.205145,-2.39891187 -1.530296,0.87296927 -2.969797,1.92436777 -4.590865,2.61894917 -1.52077,0.6516053 2.86129,-1.6548562 4.28786,-2.4891201 0.0421,-0.024621 -0.09244,0.033776 -0.133697,0.059748 -0.04327,0.02723 -0.07828,0.065547 -0.117414,0.098322 -0.324911,0.4623132 0.126559,-0.15935 -0.226487,0.2618988 -0.145256,0.1733191 -0.271344,0.3648091 -0.447003,0.5145221 -0.260431,0.1237578 -0.434336,0.3395976 -0.566792,0.5872786 -0.272334,0.2773503 -0.674438,0.3710376 -0.947038,0.6552649 -0.435205,0.2823401 -0.815521,0.6293223 -1.173642,1.0019401 -0.28419,0.2838706 -0.551813,0.5630428 -0.748842,0.9146849 -0.136279,0.2688061 -0.341518,0.4790218 -0.519897,0.7171766 -0.0992,0.2120158 -0.157217,0.2492066 -0.285695,0.4234047 -0.170411,0.2310496 -0.0028,0.064766 -0.144894,0.3091453 -0.02247,0.038655 -0.05958,0.066937 -0.08937,0.1004044 -0.04088,0.1016333 -0.100248,0.1955661 -0.138455,0.2982133 -0.09259,0.2487698 -0.12522,0.5227158 -0.297841,0.7395268 -0.18969,0.421971 0.04164,-0.04074 -0.177042,0.271666 -0.126119,0.180163 -0.119627,0.429052 -0.279958,0.59274 -0.06207,0.18642 -0.138454,0.336984 -0.230685,0.508843 -0.02765,0.05152 -0.03868,0.112365 -0.07453,0.158676 -0.02829,0.03655 -0.0747,0.0549 -0.112051,0.08237 -0.03181,0.0437 -0.06362,0.0874 -0.09543,0.131106 -0.320217,0.286283 -0.518338,0.6848201 -0.772447,1.0266171 -0.304467,0.521118 -0.614817,1.033928 -0.837229,1.597219 0,0 -4.672139,2.169449 -4.672139,2.169449 z"
       inkscape:connector-curvature="0" />
    <path
       style="fill:#008000;stroke:#008000;stroke-width:0.84393686000000001;stroke-opacity:1"
       id="path3084"
       d="m 47.043232,44.894097 c 0.621318,0.09095 1.250094,0.114539 1.877168,0.130566 0.440416,-0.01521 0.892921,0.05571 1.326088,-0.03667 0.136431,-0.04072 0.281848,-0.03474 0.419528,-0.0679 0.194797,-0.04691 0.338538,-0.165904 0.511045,-0.259276 -1.430971,0.809945 -2.861943,1.619888 -4.292915,2.429831 2.90569,-1.737103 9.197078,-5.244433 0.380531,-0.233755 -0.0408,0.02319 0.07273,-0.05975 0.113471,-0.08304 1.518495,-0.868191 3.041614,-1.728452 4.563428,-2.590945 1.442798,-0.817712 -2.884257,1.637734 -4.326387,2.456601 0.03746,-0.01354 0.07864,-0.01957 0.112356,-0.04064 0.07582,-0.04739 0.110565,-0.14568 0.188122,-0.19023 1.521487,-0.873952 3.039454,-1.754952 4.585329,-2.586013 0.06704,-0.03604 0.152668,4.6e-4 0.228939,-0.0021 0.08189,-0.0028 0.163607,-0.0093 0.245411,-0.01399 0.545648,0.0073 1.074488,-0.106785 1.604088,-0.220085 0.347663,-0.130205 0.727466,-0.157972 1.069249,-0.303771 0.144917,-0.06182 0.283227,-0.13805 0.427874,-0.200483 3.702174,-2.247173 -14.358161,8.242645 0.646625,-0.405934 1.377111,-0.79375 -5.43567,3.282335 -4.146407,2.355502 0.270149,-0.135367 0.464723,-0.361874 0.683759,-0.561116 1.65018,-1.349001 3.843435,-2.315782 5.562574,-3.309455 1.336681,-0.772609 -2.682297,1.530002 -4.023447,2.295003 0.542996,-0.304258 1.071077,-0.632775 1.601631,-0.957109 0.285855,-0.167384 0.474931,-0.416306 0.579052,-0.723392 0.08417,-0.291348 0.140896,-0.593962 0.236132,-0.881698 0.10495,-0.311874 0.237508,-0.611814 0.306128,-0.934338 0.04078,-0.416763 0.108917,-0.828226 0.173588,-1.241712 0.04293,-0.609282 0.428173,-1.065556 0.79304,-1.524238 0.224179,-0.288017 0.467023,-0.551567 0.619122,-0.884512 0,0 4.685283,-2.133182 4.685283,-2.133182 l 0,0 c -0.160885,0.409255 -0.237033,0.704202 -0.591714,1.013215 -0.174475,0.234681 -0.193151,0.271053 -0.391368,0.491361 -0.118596,0.131815 -0.269894,0.259044 -0.357957,0.417517 -0.0081,0.01447 -0.118164,0.333177 -0.12946,0.365672 -0.04936,0.419591 -0.158961,0.825659 -0.165335,1.24914 -0.04167,0.383931 -0.08113,0.514359 -0.210215,0.865221 -0.01733,0.04708 -0.02481,0.09714 -0.03721,0.145707 -0.03099,0.08109 -0.08333,0.153746 -0.109333,0.236538 -0.06079,0.193579 -0.04456,0.414927 -0.162489,0.593292 -0.05432,0.399908 -0.164024,0.757772 -0.443521,1.064804 -0.490007,0.416222 -1.093284,0.682367 -1.634348,1.026634 -10.389273,5.941928 -2.550435,1.458978 -0.670724,0.382812 0.09458,-0.05415 -0.190874,0.105412 -0.284435,0.161269 -0.137028,0.08181 -0.28089,0.152722 -0.413828,0.240883 -0.05025,0.03333 -0.09102,0.07886 -0.136532,0.118296 -0.08017,0.06358 -0.172149,0.11292 -0.246616,0.182949 -0.03718,0.03496 -0.06336,0.0798 -0.09505,0.119708 -0.03021,0.03958 -0.0543,0.08456 -0.09063,0.11875 -0.03444,0.03241 -0.08315,0.04698 -0.118685,0.0782 -0.04039,0.03548 -0.07146,0.08014 -0.10719,0.12021 -1.552588,0.926481 -3.196425,1.708689 -4.691406,2.723574 -1.353146,0.918597 5.675216,-3.264078 4.259984,-2.442007 -1.520932,0.88347 -3.050413,1.752477 -4.577091,2.626205 -0.177027,0.101314 -0.159825,0.08554 -0.358445,0.161121 -0.496675,0.194045 -1.024779,0.293378 -1.543241,0.414243 -0.542185,0.100514 -1.088889,0.145125 -1.636344,0.205192 -0.07596,0.01701 -0.154151,0.02622 -0.227883,0.05103 -0.06482,0.02181 -0.244274,0.122101 -0.18516,0.08793 1.431359,-0.827203 2.868304,-1.644924 4.302456,-2.467385 -0.14347,0.05552 -0.229557,0.109803 -0.290747,0.259489 -8.253057,4.704968 -3.928711,2.242552 -0.240909,0.129259 0.03993,-0.02288 -0.08195,0.0421 -0.121815,0.06511 -1.514802,0.874474 -3.067154,1.688606 -4.542112,2.627307 -1.346777,0.857124 5.83887,-3.500043 4.159499,-2.3784 -2.278067,1.300677 -3.387545,2.609634 -5.600867,2.79662 -0.449952,0.0013 -0.899834,-0.0109 -1.349077,-0.03651 -0.644708,-0.03802 -1.28846,-0.08829 -1.93191,-0.143103 0,0 4.2213,-2.953749 4.2213,-2.953749 z"
       inkscape:connector-curvature="0" />
  </g>
</svg>
