<?xml version="1.0" encoding="UTF-8" standalone="no"?>
<!-- Created with Inkscape (http://www.inkscape.org/) -->

<svg
   xmlns:dc="http://purl.org/dc/elements/1.1/"
   xmlns:cc="http://creativecommons.org/ns#"
   xmlns:rdf="http://www.w3.org/1999/02/22-rdf-syntax-ns#"
   xmlns:svg="http://www.w3.org/2000/svg"
   xmlns="http://www.w3.org/2000/svg"
   xmlns:sodipodi="http://sodipodi.sourceforge.net/DTD/sodipodi-0.dtd"
   xmlns:inkscape="http://www.inkscape.org/namespaces/inkscape"
   width="240"
   height="240"
   id="svg3801"
   version="1.1"
   inkscape:version="0.48.5 r10040"
   sodipodi:docname="grid.svg">
  <defs
     id="defs3803" />
  <sodipodi:namedview
     id="base"
     pagecolor="#ffffff"
     bordercolor="#666666"
     borderopacity="1.0"
     inkscape:pageopacity="0.0"
     inkscape:pageshadow="2"
     inkscape:zoom="1.3266532"
     inkscape:cx="465.26267"
     inkscape:cy="231.38532"
     inkscape:current-layer="layer1"
     inkscape:document-units="px"
     showgrid="true"
     inkscape:window-width="1600"
     inkscape:window-height="837"
     inkscape:window-x="-8"
     inkscape:window-y="-8"
     inkscape:window-maximized="1">
    <inkscape:grid
       type="xygrid"
       id="grid3809"
       empspacing="5"
       visible="true"
       enabled="true"
       snapvisiblegridlinesonly="true" />
  </sodipodi:namedview>
  <metadata
     id="metadata3806">
    <rdf:RDF>
      <cc:Work
         rdf:about="">
        <dc:format>image/svg+xml</dc:format>
        <dc:type
           rdf:resource="http://purl.org/dc/dcmitype/StillImage" />
        <dc:title />
      </cc:Work>
    </rdf:RDF>
  </metadata>
  <g
     id="layer1"
     inkscape:label="Layer 1"
     inkscape:groupmode="layer"
     transform="translate(0,-240)">
    <path
       style="fill:#000080;stroke:none"
       id="path3929"
       d="m 75.30024,242.84821 c 0.009,1.08763 0.0202,3.45412 0.0762,4.37101 0.1549,2.53321 0.47487,5.05369 0.68988,7.58251 1.50398,17.68855 -0.84353,-9.03305 0.89078,10.56848 1.898,16.17941 3.24537,32.41406 4.21982,48.67317 0.88358,19.34641 1.1798,38.71578 1.49238,58.07842 0.25899,13.34357 0.0515,26.69351 0.5889,40.03105 0.31739,7.87739 0.55566,10.77708 1.06648,18.56464 0.88961,11.61182 2.26977,23.17712 3.53654,34.75159 0,0 -8.20364,4.27181 -8.20364,4.27181 l 0,0 c -0.80224,-11.73572 -1.99776,-23.43925 -2.76621,-35.17737 -0.44123,-7.44077 -0.69964,-11.13067 -0.98079,-18.63904 -0.4997,-13.34447 -0.27977,-26.69904 -0.58002,-40.04792 -0.33538,-19.33447 -0.64171,-38.67708 -1.57746,-57.99323 -1.01005,-16.18067 -2.42412,-32.33589 -4.68813,-48.39484 -0.3712,-3.4865 -0.69366,-6.97813 -1.07405,-10.46364 -0.27387,-2.50947 -0.68613,-5.00286 -0.94477,-7.51394 -0.14705,-1.42762 -0.13864,-2.86846 -0.32095,-4.29353 0,0 8.57499,-4.36917 8.57499,-4.36917 z"
       inkscape:connector-curvature="0" />
    <path
       style="fill:#000080;stroke:none"
       id="path3931"
       d="m 154.84938,251.80323 c 0.2134,8.5244 0.36615,17.049 0.84258,25.56321 1.08261,14.24785 3.03377,28.40344 4.30804,42.63356 1.05846,13.28132 0.93563,26.61862 0.8742,39.9308 -0.12134,8.578 0.0366,17.16355 -0.22139,25.73973 -0.11028,3.66606 -0.42721,8.88435 -0.6339,12.55981 -0.61944,9.41148 -0.73235,18.85171 -0.56558,28.27977 0.22905,6.58955 0.30747,13.18058 1.07334,19.73358 0.4811,3.44703 1.1662,6.85547 1.5945,10.31147 0.27973,2.2839 0.31328,4.58739 0.3272,6.88525 -0.0772,2.72872 0.0762,5.44611 0.26381,8.16676 0.14226,1.99891 0.0743,1.02301 0.20442,2.92765 0,0 -8.48311,4.38691 -8.48311,4.38691 l 0,0 c -0.0999,-1.9099 -0.0439,-0.93186 -0.16927,-2.93401 -0.20136,-2.7279 -0.46162,-5.44847 -0.35706,-8.18791 -0.0176,-2.27258 -0.0335,-4.54829 -0.24843,-6.81286 -0.35125,-3.48701 -1.04763,-6.91683 -1.4303,-10.39887 -0.69636,-6.61613 -0.68449,-13.26238 -0.92072,-19.90712 -0.2102,-9.50456 0.22303,-19.01141 0.8356,-28.4955 0.20264,-3.34649 0.58008,-9.21808 0.69249,-12.54847 0.28927,-8.57067 0.0362,-17.15141 0.21327,-25.72398 0.0706,-13.30079 0.2836,-26.62814 -0.75911,-39.90027 -1.19076,-14.23242 -3.12963,-28.37756 -4.41294,-42.60114 -0.60599,-8.37819 -0.81943,-16.78035 -1.56943,-25.14832 0,0 8.54179,-4.46005 8.54179,-4.46005 z"
       inkscape:connector-curvature="0" />
    <path
       style="fill:#000080;stroke:none"
       id="path3933"
       d="m 12.56679,304.77665 c 4.55396,0.26231 9.0424,1.00515 13.54542,1.68076 13.7734,2.06649 -1.29676,-0.40404 14.81784,2.32136 3.29976,0.48095 6.59107,1.02406 9.8993,1.44284 7.8072,0.98829 17.61749,1.88203 25.38011,2.58106 14.36387,1.29347 28.73469,2.46678 43.11632,3.54142 23.51873,1.91229 47.0874,3.07676 70.67422,3.65591 8.67556,0.18251 17.35374,0.2267 26.03019,0.0944 2.99118,-0.0847 5.98324,-0.0514 8.975,-0.0406 3.7733,-0.0808 7.56526,0.17206 11.33004,-0.13702 1.83528,-0.33102 3.74912,-0.26616 5.56271,-0.69537 0,0 -7.70568,5.80899 -7.70568,5.80899 l 0,0 c -1.8431,0.22813 -3.69646,0.38679 -5.54674,0.54258 -3.76321,0.13376 -7.53282,-0.038 -11.29772,0.0468 -2.98912,0.0237 -5.97855,0.0894 -8.96773,0.0325 -8.41891,-0.13738 -16.83598,-0.37968 -25.25004,-0.69516 -23.34053,-0.95671 -46.65557,-2.39938 -69.94481,-4.22191 -14.41669,-1.09842 -28.82616,-2.27397 -43.23518,-3.46899 -6.36994,-0.5283 -19.26394,-1.57982 -25.83241,-2.3072 -3.37788,-0.37405 -6.7405,-0.87507 -10.11075,-1.3126 -9.73357,-1.40268 -19.48816,-2.90782 -29.32645,-3.28848 0,0 7.88636,-5.58127 7.88636,-5.58127 z"
       inkscape:connector-curvature="0" />
    <path
       style="fill:#000080;stroke:none"
       id="path3935"
       d="m 8.11614,390.83468 c 5.08144,0.37862 10.18873,0.59362 15.2845,0.6303 2.41682,0.0174 4.83354,-0.0743 7.25039,-0.0614 2.94167,0.0157 5.88261,0.098 8.82391,0.14706 10.49041,0.32621 20.99001,0.28213 31.48126,0.54791 10.07153,0.25514 20.14057,0.79887 30.20571,1.22818 16.22425,0.62243 32.36636,2.28866 48.42596,4.62019 11.86082,2.1543 23.82402,3.56129 35.83127,4.55784 7.43232,0.60674 14.87217,1.10002 22.26761,2.07276 2.42016,0.12921 4.91141,0.97727 7.34292,0.6366 1.75525,-0.44817 3.57457,-0.41828 5.37252,-0.44371 3.68356,-0.032 7.36718,-0.0543 11.05076,-0.0827 1.97945,-0.0166 3.95893,-0.0268 5.93844,-0.0312 0.93191,-0.001 0.49267,0.0547 1.32094,-0.1403 0,0 -7.74583,5.78586 -7.74583,5.78586 l 0,0 c -0.89731,0.0367 -0.43699,0.0275 -1.38102,0.0248 -1.94789,-0.008 -3.89573,-0.0226 -5.8436,-0.0347 -3.67699,-0.0162 -7.3554,-0.022 -11.03073,0.10455 -1.8348,0.093 -3.64595,0.28182 -5.46288,0.53212 -2.43841,-0.076 -4.83789,-0.59589 -7.24827,-0.92884 -7.25088,-1.0856 -14.55557,-1.66633 -21.85696,-2.30359 -11.95813,-1.06397 -23.85454,-2.58048 -35.66939,-4.73836 -15.92482,-2.39089 -31.93472,-4.12798 -48.03313,-4.79352 -10.01709,-0.466 -20.03849,-1.04258 -30.06384,-1.30032 -10.56261,-0.27155 -21.13399,-0.24051 -31.69846,-0.38334 -10.80924,0.0135 -21.62534,0.36977 -32.43042,-0.0614 0,0 7.86834,-5.58471 7.86834,-5.58471 z"
       inkscape:connector-curvature="0" />
  </g>
</svg>
