<?xml version="1.0" encoding="UTF-8" standalone="no"?>
<!-- Created with Inkscape (http://www.inkscape.org/) -->

<svg
   xmlns:dc="http://purl.org/dc/elements/1.1/"
   xmlns:cc="http://creativecommons.org/ns#"
   xmlns:rdf="http://www.w3.org/1999/02/22-rdf-syntax-ns#"
   xmlns:svg="http://www.w3.org/2000/svg"
   xmlns="http://www.w3.org/2000/svg"
   xmlns:sodipodi="http://sodipodi.sourceforge.net/DTD/sodipodi-0.dtd"
   xmlns:inkscape="http://www.inkscape.org/namespaces/inkscape"
   width="80"
   height="80"
   id="svg2985"
   version="1.1"
   inkscape:version="0.48.5 r10040"
   sodipodi:docname="k_b.svg">
  <defs
     id="defs2987" />
  <sodipodi:namedview
     id="base"
     pagecolor="#ffffff"
     bordercolor="#666666"
     borderopacity="1.0"
     inkscape:pageopacity="0.0"
     inkscape:pageshadow="2"
     inkscape:zoom="4.3574481"
     inkscape:cx="-11.509785"
     inkscape:cy="51.8817"
     inkscape:current-layer="layer1"
     showgrid="true"
     inkscape:document-units="px"
     inkscape:grid-bbox="true"
     inkscape:window-width="1600"
     inkscape:window-height="837"
     inkscape:window-x="-8"
     inkscape:window-y="-8"
     inkscape:window-maximized="1" />
  <metadata
     id="metadata2990">
    <rdf:RDF>
      <cc:Work
         rdf:about="">
        <dc:format>image/svg+xml</dc:format>
        <dc:type
           rdf:resource="http://purl.org/dc/dcmitype/StillImage" />
        <dc:title />
      </cc:Work>
    </rdf:RDF>
  </metadata>
  <g
     id="layer1"
     inkscape:label="Layer 1"
     inkscape:groupmode="layer"
     transform="translate(0,16)">
    <path
       style="fill:#0000ff;stroke:#0000ff;stroke-width:0.79881072;stroke-opacity:1"
       id="path2994"
       d="m 68.639744,-4.8897124 c -0.447408,0.4888212 -1.04011,0.8259216 -1.578727,1.2148736 -0.371757,0.2684578 -1.044354,0.7973 -1.388128,1.0646327 -1.861671,1.3376175 -3.576311,2.83407459 -5.262676,4.3585986 -1.470268,1.356566 -2.729052,2.892128 -4.020538,4.395004 -1.071855,1.232264 -2.044652,2.53439 -2.990147,3.853156 -1.118869,1.5633825 -2.14462,3.1825795 -3.221833,4.7708705 -0.830815,1.2717 -1.854705,2.415392 -2.78862,3.618912 -0.460587,0.639069 -1.047985,1.180342 -1.587294,1.758168 -0.09129,0.09781 -0.764949,0.844408 -0.84953,0.938043 -0.836245,0.970397 -1.761854,1.861384 -2.739103,2.705851 -1.245116,1.094899 -2.474472,2.205968 -3.690903,3.328944 -1.218608,1.10224 -2.384935,2.252812 -3.53005,3.421714 -0.766725,0.771083 -1.466074,1.59681 -2.207652,2.388553 -0.683729,0.718184 -1.344555,1.454189 -1.965418,2.220961 -0.554143,0.718177 -1.140659,1.412154 -1.758536,2.082824 -0.601268,0.647747 -1.20201,1.295939 -1.801296,1.945315 -0.407239,0.466615 -0.834799,0.915426 -1.288811,1.342199 -0.315618,0.290344 -0.646106,0.565683 -0.95209,0.864872 -0.35212,0.207493 -0.647453,0.486363 -0.942682,0.758152 -0.360019,0.326881 -0.713527,0.658174 -1.051033,1.005561 -0.324253,0.348895 -0.665619,0.683269 -1.014834,1.010283 -0.215719,0.253975 -0.432301,0.512075 -0.603772,0.794899 -0.08917,0.08622 -0.152287,0.187437 -0.213104,0.291872 0,0 -6.216305,2.443768 -6.216305,2.443768 l 0,0 c 0.114549,-0.06267 0.181338,-0.139208 0.245032,-0.250366 0.189192,-0.164142 0.01453,0.0031 0.185941,-0.219467 0.120711,-0.156706 0.105963,-0.0879 0.221129,-0.259257 0.240344,-0.357622 -0.04109,-0.02248 0.247921,-0.343688 0.279604,-0.404046 0.682735,-0.706831 1.030465,-1.056695 0.327216,-0.34396 0.63193,-0.706065 0.99284,-1.020692 0.294563,-0.27645 0.587263,-0.554563 0.878666,-0.833927 0.208077,-0.09703 0.298781,-0.189413 0.471653,-0.331571 0.190209,-0.156415 0.390291,-0.301708 0.563205,-0.476939 0.488442,-0.418944 0.983578,-0.832866 1.397462,-1.320226 0.607444,-0.662449 1.25337,-1.293926 1.842014,-1.971468 0.631714,-0.647052 1.21776,-1.329417 1.776823,-2.032737 0.619762,-0.794187 1.286122,-1.552449 1.989862,-2.282397 0.238646,-0.257173 0.484022,-0.508859 0.719979,-0.768206 0.512609,-0.563421 0.99566,-1.152929 1.562479,-1.671158 1.196181,-1.183307 2.415174,-2.346585 3.648825,-3.49549 1.186315,-1.092411 2.358562,-2.197978 3.537872,-3.296959 0.21661,-0.180017 0.806724,-0.666777 1.016337,-0.855557 0.617758,-0.556359 1.17236,-1.171898 1.741669,-1.77063 0.494334,-0.548581 0.349462,-0.383403 0.830418,-0.934512 0.133132,-0.152549 0.258922,-0.31094 0.398474,-0.458355 0.405342,-0.428178 0.873743,-0.805602 1.232088,-1.273488 0.448678,-0.549137 0.882021,-1.109658 1.348272,-1.645982 0.398515,-0.45841 0.717091,-0.775207 1.093873,-1.256606 0.192595,-0.246072 0.366127,-0.504783 0.549191,-0.757175 1.094899,-1.543163 2.09195,-3.144558 3.111332,-4.732132 0.948166,-1.34948 1.939956,-2.6727465 3.027208,-3.9276525 1.706082,-1.97312 -0.560674,0.640722 1.209405,-1.374738 0.950434,-1.08219 1.896364,-2.169813 2.964067,-3.154809 1.627828,-1.502296 3.266038,-3.00369601 5.06438,-4.32833491 0.224911,-0.1798874 0.449822,-0.3597749 0.674733,-0.5396623 0.182951,-0.16478189 0.358694,-0.33690769 0.548854,-0.49434639 0.423178,-0.3503594 0.911989,-0.6200384 1.335303,-0.9700274 0,0 6.20531,-2.4727759 6.20531,-2.4727759 z"
       inkscape:connector-curvature="0" />
    <path
       style="fill:#0000ff;stroke:#0000ff;stroke-width:0.79881072;stroke-opacity:1"
       id="path2996"
       d="m 16.088239,-6.527499 c 0.107825,0.5458234 0.357337,1.0580142 0.619358,1.5521449 0.533024,1.1639433 1.288347,2.2164552 2.045222,3.2594801 0.903861,1.25160569 1.760202,2.53144349 2.619662,3.8098685 0.743027,1.124686 1.625816,2.154424 2.538883,3.159945 0.174302,0.179035 0.345168,0.361067 0.522907,0.537105 0.58228,0.576707 0.449486,0.394136 0.996027,0.988258 0.400161,0.434999 0.770342,0.894982 1.135447,1.355834 0.6888,0.99975 1.46022,1.9386445 2.312105,2.8200275 0.182869,0.17103 0.370019,0.338127 0.548608,0.51309 0.246939,0.241927 1.014315,1.044217 1.24067,1.273481 0.652081,0.660461 1.325262,1.302614 1.990732,1.951124 0.942922,0.90473 1.897852,1.805167 2.944564,2.605953 0.398439,0.304825 1.497213,1.075855 1.887838,1.352142 1.519677,1.086226 3.035566,2.181228 4.464838,3.372115 0.550948,0.459057 1.579797,1.371342 2.122458,1.84917 1.626287,1.44791 3.325555,2.819522 4.993849,4.22384 0.24399,0.195386 0.486868,0.392001 0.731972,0.586158 0.245602,0.194552 0.497951,0.381655 0.740124,0.579952 0.868873,0.711457 0.586012,0.54085 1.459408,1.215006 2.331458,1.799602 -0.909846,-0.77302 1.38501,1.059359 1.062566,0.831302 2.213491,1.55432 3.321802,2.328926 0.649757,0.441129 1.25366,0.937439 1.872797,1.414991 0.108825,0.08959 0.225323,0.171593 0.326476,0.268771 0.126871,0.121882 0.236746,0.258371 0.355981,0.386856 0.471546,0.508134 0.942733,1.014016 1.447695,1.493245 0.407337,0.394596 0.894365,0.701686 1.315142,1.081366 0.217605,0.143312 0.429928,0.291246 0.643953,0.44009 0.218624,0.192293 0.349484,0.448081 0.531412,0.667782 0.09077,0.109612 0.250459,0.273622 0.347322,0.37539 0.396328,0.40785 0.840439,0.768583 1.286463,1.12686 0.463626,0.364192 0.948463,0.711996 1.384053,1.106234 0.352243,0.335312 0.756028,0.627648 1.079781,0.987999 0.130965,0.147365 0.238381,0.275365 0.436004,0.3342 0.112262,0.101821 0.229545,0.109263 0.35377,0.193412 0,0 -5.667826,3.443712 -5.667826,3.443712 l 0,0 c -0.127018,-0.04722 -0.225326,-0.135295 -0.346326,-0.193316 -0.217183,-0.15315 -0.391248,-0.331658 -0.537431,-0.547435 -0.275971,-0.347346 -0.612982,-0.653999 -0.94807,-0.950006 -0.458119,-0.369121 -0.925468,-0.728047 -1.387131,-1.0934 -0.449334,-0.387638 -0.932959,-0.742001 -1.33022,-1.180316 -0.294135,-0.29863 -0.546042,-0.643705 -0.892333,-0.890921 -0.234346,-0.162636 -0.458184,-0.342198 -0.661862,-0.537748 -0.400491,-0.388218 -0.795655,-0.781056 -1.171645,-1.190632 -0.669993,-0.714185 -1.308528,-1.46804 -2.123705,-2.044355 -0.63117,-0.453136 -1.217631,-0.953721 -1.815411,-1.444503 -0.624282,-0.482375 -1.230592,-0.98559 -1.857508,-1.464794 -0.214093,-0.16365 -0.436884,-0.317151 -0.650201,-0.48169 -0.217491,-0.167759 -0.427986,-0.343341 -0.641978,-0.515012 -0.450089,-0.364715 -0.909352,-0.719467 -1.356173,-1.0877 -0.237294,-0.195559 -0.465019,-0.401136 -0.700765,-0.598335 -0.730919,-0.611408 -1.488224,-1.193526 -2.228693,-1.794552 -1.897489,-1.65897 0.48481,0.436612 -1.400724,-1.263304 -1.134917,-1.023193 -2.303474,-2.016073 -3.369206,-3.104899 -1.031613,-0.941592 -2.071701,-1.8666 -3.184678,-2.724629 -0.876635,-0.675824 -1.399745,-1.033556 -2.322266,-1.649873 -0.370983,-0.247845 -0.747033,-0.488952 -1.120548,-0.733428 -0.402999,-0.263959 -1.599781,-1.040744 -2.004549,-1.33301 -1.090943,-0.787726 -2.046716,-1.720733 -3.025609,-2.624068 -0.679195,-0.640891 -1.326005,-1.308159 -1.999944,-1.953629 -0.858828,-0.82255 -0.481025,-0.437731 -1.323953,-1.210551 -0.189729,-0.17395 -0.374394,-0.352695 -0.561591,-0.529042 -0.900084,-0.877798 -1.799624,-1.765952 -2.461285,-2.822901 -0.338716,-0.44914 -0.671143,-0.913034 -1.036643,-1.3433675 -0.461321,-0.54315 -0.994087,-1.029801 -1.484464,-1.548804 -0.492094,-0.514572 -0.995251,-1.029599 -1.443903,-1.578898 -0.326402,-0.399624 -0.488457,-0.655823 -0.770387,-1.083163 -0.126411,-0.191611 -0.250723,-0.384434 -0.376085,-0.576651 -0.275525,-0.408449 -0.5645,-0.808938 -0.834194,-1.220797 -0.567431,-0.866538 -1.076687,-1.767319 -1.710782,-2.595284 -0.809387,-1.04017101 -1.670428,-2.05322371 -2.345264,-3.1779078 -0.314171,-0.5053213 -0.565417,-1.0400574 -0.801611,-1.581149 0,0 5.892631,-3.0438167 5.892631,-3.0438167 z"
       inkscape:connector-curvature="0" />
    <path
       style="fill:#008000;stroke:#008000;stroke-width:0.05737303000000000;stroke-opacity:1"
       d="m 14.963715,63.709766 -0.181049,-0.315213 0.300032,-0.365198 c 0.165017,-0.200859 0.390394,-0.484839 0.500837,-0.631066 0.251394,-0.332846 2.839085,-2.898151 3.070704,-3.044139 0.450844,-0.284163 1.69366,-1.393352 2.412335,-2.152961 1.532061,-1.619323 2.689923,-2.905968 3.562719,-3.95898 0.537788,-0.648831 1.310738,-1.538076 1.717666,-1.976099 0.406928,-0.438024 1.026159,-1.112505 1.376068,-1.498846 0.635756,-0.701951 2.231952,-2.275389 4.069333,-4.011316 1.392908,-1.315997 4.251133,-3.969271 4.589144,-4.260078 l 0.28662,-0.246592 -0.229492,-0.204296 C 35.851474,40.522287 34.195122,39.336701 32.337336,38.109349 30.237498,36.722085 29.703814,36.341134 28.956962,35.696388 28.348387,35.171015 26.365409,33.316761 25.881994,32.821031 25.661108,32.594517 25.041479,32.006854 24.505042,31.515112 22.488616,29.666697 21.679941,28.805157 20.7494,27.513951 19.969918,26.432353 19.664919,26.073117 18.526723,24.896029 16.788352,23.098257 16.673707,22.955331 15.28825,20.858679 14.766963,20.0698 14.067505,19.011268 13.733899,18.506385 13.400293,18.001502 12.740762,17.094126 12.268275,16.489992 11.795788,15.885859 11.224319,15.111323 10.998344,14.768801 10.526663,14.05385 9.693038,12.409686 9.7675102,12.34122 c 0.02752,-0.0253 0.6074998,-0.333104 1.2888448,-0.684008 l 1.238808,-0.638007 2.410702,0 2.410701,0 0.280543,0.530181 c 0.3098,0.585476 0.797927,1.32872 1.758428,2.677461 0.349534,0.490819 1.164324,1.667414 1.810644,2.614655 1.68393,2.467954 2.258879,3.180718 4.027201,4.992519 1.103641,1.130778 1.420922,1.498807 2.250507,2.610473 0.87339,1.170366 1.369274,1.71042 3.638069,3.962118 3.717569,3.689554 3.983305,3.923649 6.474642,5.703713 0.78888,0.563655 1.934557,1.396777 2.545949,1.851382 0.611393,0.454604 1.130549,0.805263 1.15368,0.779241 0.02313,-0.02602 0.336098,-0.408762 0.695481,-0.850535 0.359383,-0.441772 0.88108,-1.061401 1.159326,-1.376952 0.906185,-1.027681 1.664673,-2.099064 3.493092,-4.934081 1.348031,-2.090162 2.601705,-3.790821 3.975604,-5.393065 1.138506,-1.327729 3.178463,-3.564224 3.794013,-4.159545 1.536517,-1.48602 3.355295,-3.069273 5.070667,-4.414035 0.615325,-0.482383 1.222045,-0.974727 1.348266,-1.094097 0.12622,-0.119371 0.552215,-0.451845 0.946655,-0.738832 l 0.717163,-0.521794 2.815239,-1.119403 c 2.655308,-1.055811 2.836693,-1.119404 3.19291,-1.119404 0.363011,0 0.382374,0.0072 0.498744,0.186462 l 0.121074,0.186462 -0.244523,0.222092 c -0.134494,0.12215 -0.502709,0.404844 -0.81826,0.628208 -1.556333,1.101656 -3.99297,2.998853 -5.278319,4.109766 -2.20527,1.905991 -3.124375,2.831525 -5.130383,5.166274 -2.369004,2.757232 -3.3561,4.080439 -5.970537,8.003538 -0.67293,1.009765 -1.395431,2.068298 -1.605559,2.352294 -0.822328,1.111409 -2.710636,3.419658 -3.333384,4.074696 -0.360629,0.379328 -0.899275,0.960229 -1.196991,1.290893 -0.297716,0.330663 -0.796253,0.861375 -1.107861,1.179358 l -0.566558,0.578151 1.050487,0.917964 c 1.242093,1.085398 4.239088,3.59516 5.296092,4.435085 0.410217,0.32597 1.029846,0.831243 1.376953,1.122829 1.097096,0.921613 3.029037,2.365845 4.561156,3.409715 2.163276,1.473892 2.792257,1.979529 3.987425,3.205484 0.994811,1.020436 1.985796,1.888625 2.755892,2.414399 0.157666,0.107645 0.389536,0.327097 0.515265,0.487671 0.462328,0.590457 1.112868,1.211534 2.064535,1.971034 1.030867,0.822706 1.598099,1.306758 2.208862,1.884949 0.247347,0.234156 0.545193,0.43915 0.884497,0.608762 l 0.511572,0.255725 -0.769751,0.468272 c -0.423361,0.257549 -1.865497,1.134223 -3.204742,1.948163 l -2.434991,1.479891 -0.315935,-0.171118 c -0.179296,-0.09711 -0.478513,-0.345786 -0.691839,-0.574978 -0.721798,-0.775481 -0.95752,-0.988825 -2.097095,-1.898011 -0.631103,-0.503513 -1.457275,-1.228119 -1.835937,-1.610234 -0.378662,-0.382116 -0.87762,-0.84566 -1.108794,-1.0301 -0.231176,-0.184439 -0.860138,-0.801984 -1.397695,-1.372322 -1.154636,-1.225048 -1.39884,-1.460474 -2.083353,-2.008462 -1.92455,-1.5407 -3.698798,-2.944142 -4.188232,-3.312919 -0.315551,-0.237761 -1.038451,-0.811959 -1.606444,-1.275996 -0.567993,-0.464037 -1.678161,-1.368445 -2.467041,-2.009797 -0.788879,-0.641351 -1.653777,-1.36985 -1.921996,-1.618885 -0.268219,-0.249036 -0.977536,-0.890975 -1.57626,-1.426531 -0.598724,-0.535558 -1.340987,-1.215721 -1.649473,-1.511474 l -0.560884,-0.537734 -0.443826,0.394301 c -0.856898,0.761281 -3.912612,3.850794 -5.156599,5.213636 -1.327308,1.454125 -1.942357,2.160278 -2.698437,3.098144 -0.552584,0.685442 -1.217036,1.429008 -2.922317,3.270263 -1.225524,1.323244 -2.218344,2.275549 -2.812828,2.698043 -0.554378,0.393991 -2.640185,2.474826 -3.072458,3.065134 l -0.413332,0.564442 -2.958544,1.162833 c -1.6272,0.639557 -3.037905,1.195811 -3.134901,1.236118 l -0.176356,0.07328 -0.181049,-0.315213 0,0 z"
       id="path2984"
       inkscape:connector-curvature="0"
       transform="translate(0,-16)" />
    <path
       style="fill:#008000;stroke:#008000;stroke-width:0.16227543000000000;stroke-opacity:1"
       d="m 12.575023,10.928692 c 0.03719,-0.03442 0.883094,-0.470146 1.879791,-0.968277 L 16.26699,9.0547225 16.506661,9.739017 c 0.131819,0.376362 0.29172,0.812087 0.355335,0.968277 0.106838,0.262312 -0.05489,0.283982 -2.119462,0.283982 -1.229319,0 -2.204699,-0.02816 -2.167511,-0.06258 z"
       id="path2986"
       inkscape:connector-curvature="0"
       transform="translate(0,-16)" />
    <path
       style="fill:#008000;stroke:#008000;stroke-width:0.16227543000000000;stroke-opacity:1"
       d="m 12.575023,10.928692 c 0.03719,-0.03442 0.883094,-0.470146 1.879791,-0.968277 L 16.26699,9.0547225 16.506661,9.739017 c 0.131819,0.376362 0.29172,0.812087 0.355335,0.968277 0.106838,0.262312 -0.05489,0.283982 -2.119462,0.283982 -1.229319,0 -2.204699,-0.02816 -2.167511,-0.06258 z"
       id="path2988"
       inkscape:connector-curvature="0"
       transform="translate(0,-16)" />
    <path
       style="fill:#008000;stroke:#0000ff;stroke-width:0.16227543;stroke-opacity:1"
       d=""
       id="path2990"
       inkscape:connector-curvature="0"
       transform="translate(0,-16)" />
    <path
       style="fill:#008000;stroke:#008000;stroke-width:0.16227543000000000;stroke-opacity:1"
       d=""
       id="path2992"
       inkscape:connector-curvature="0"
       transform="translate(0,-16)" />
  </g>
</svg>
