<?xml version="1.0" encoding="UTF-8" standalone="no"?>
<!-- Created with Inkscape (http://www.inkscape.org/) -->

<svg
   xmlns:dc="http://purl.org/dc/elements/1.1/"
   xmlns:cc="http://creativecommons.org/ns#"
   xmlns:rdf="http://www.w3.org/1999/02/22-rdf-syntax-ns#"
   xmlns:svg="http://www.w3.org/2000/svg"
   xmlns="http://www.w3.org/2000/svg"
   xmlns:sodipodi="http://sodipodi.sourceforge.net/DTD/sodipodi-0.dtd"
   xmlns:inkscape="http://www.inkscape.org/namespaces/inkscape"
   width="80"
   height="80"
   id="svg2985"
   version="1.1"
   inkscape:version="0.48.5 r10040"
   sodipodi:docname="k_r.svg">
  <defs
     id="defs2987" />
  <sodipodi:namedview
     id="base"
     pagecolor="#ffffff"
     bordercolor="#666666"
     borderopacity="1.0"
     inkscape:pageopacity="0.0"
     inkscape:pageshadow="2"
     inkscape:zoom="3.0811811"
     inkscape:cx="151.58367"
     inkscape:cy="26.081855"
     inkscape:current-layer="layer1"
     showgrid="true"
     inkscape:document-units="px"
     inkscape:grid-bbox="true"
     inkscape:window-width="1600"
     inkscape:window-height="837"
     inkscape:window-x="-8"
     inkscape:window-y="-8"
     inkscape:window-maximized="1" />
  <metadata
     id="metadata2990">
    <rdf:RDF>
      <cc:Work
         rdf:about="">
        <dc:format>image/svg+xml</dc:format>
        <dc:type
           rdf:resource="http://purl.org/dc/dcmitype/StillImage" />
        <dc:title />
      </cc:Work>
    </rdf:RDF>
  </metadata>
  <g
     id="layer1"
     inkscape:label="Layer 1"
     inkscape:groupmode="layer"
     transform="translate(0,16)">
    <path
       style="fill:#ff0000;stroke:#ff0000;stroke-width:0.76613498;stroke-opacity:1"
       id="path2994"
       d="m 65.77353,-2.662038 c -0.415019,0.4847394 -0.964814,0.8190248 -1.46444,1.2047288 -0.344845,0.2662161 -0.968751,0.79064225 -1.287639,1.05574255 -1.726902,1.3264477 -3.317416,2.81040905 -4.881702,4.32220205 -1.363833,1.345238 -2.531491,2.867977 -3.729484,4.358303 -0.994262,1.221974 -1.896637,2.5132276 -2.773686,3.8209806 -1.037872,1.550328 -1.989367,3.156004 -2.988599,4.731032 -0.770672,1.261081 -1.72044,2.395222 -2.586747,3.588691 -0.427245,0.633733 -0.97212,1.170486 -1.472387,1.743487 -0.08468,0.09699 -0.709574,0.837357 -0.788032,0.93021 -0.775708,0.962294 -1.63431,1.845841 -2.540814,2.683256 -1.15498,1.085756 -2.295341,2.187547 -3.423713,3.301146 -1.130391,1.093036 -2.212286,2.233999 -3.274504,3.39314 -0.711221,0.764645 -1.359942,1.583477 -2.047837,2.368608 -0.634232,0.712187 -1.24722,1.442046 -1.823138,2.202415 -0.514027,0.71218 -1.058084,1.400362 -1.631232,2.065431 -0.557741,0.642339 -1.114995,1.285118 -1.670897,1.929071 -0.377758,0.462718 -0.774367,0.907781 -1.195512,1.330991 -0.292771,0.28792 -0.599334,0.560959 -0.883167,0.85765 -0.326629,0.20576 -0.600582,0.482302 -0.87444,0.751821 -0.333956,0.324151 -0.661873,0.652678 -0.974946,0.997164 -0.30078,0.345981 -0.617434,0.677564 -0.941369,1.001846 -0.200103,0.251855 -0.401006,0.507799 -0.560064,0.788261 -0.08272,0.08551 -0.141263,0.185873 -0.197677,0.289436 0,0 -5.766297,2.423361 -5.766297,2.423361 l 0,0 c 0.106257,-0.06215 0.168211,-0.138046 0.227294,-0.248276 0.175496,-0.162771 0.01348,0.0031 0.172481,-0.217633 0.111972,-0.155399 0.09829,-0.08716 0.205121,-0.257093 0.222945,-0.354635 -0.03812,-0.02229 0.229973,-0.340818 0.259363,-0.400672 0.633311,-0.700928 0.955868,-1.047871 0.303528,-0.341088 0.586183,-0.700169 0.920967,-1.012168 0.273239,-0.274143 0.54475,-0.549932 0.815058,-0.826964 0.193014,-0.09622 0.277151,-0.187832 0.437509,-0.328802 0.17644,-0.155109 0.362038,-0.299189 0.522434,-0.472956 0.453083,-0.415446 0.912375,-0.825912 1.296297,-1.309202 0.56347,-0.656917 1.162637,-1.283121 1.708668,-1.955005 0.585983,-0.641649 1.129604,-1.318316 1.648196,-2.015763 0.574896,-0.787555 1.193017,-1.539485 1.845812,-2.263337 0.22137,-0.255027 0.448983,-0.504611 0.667859,-0.761792 0.475501,-0.558716 0.923582,-1.143301 1.449369,-1.657203 1.109587,-1.173425 2.240335,-2.32699 3.38468,-3.4663 1.100436,-1.083289 2.187822,-2.179624 3.28176,-3.269428 0.200929,-0.178514 0.748324,-0.66121 0.942763,-0.848413 0.573036,-0.551713 1.087491,-1.162112 1.615586,-1.755844 0.458549,-0.544 0.324164,-0.380202 0.770303,-0.926709 0.123494,-0.151275 0.240178,-0.308344 0.369628,-0.454528 0.375998,-0.424602 0.810491,-0.798874 1.142895,-1.262853 0.416197,-0.544551 0.818169,-1.100392 1.250668,-1.632238 0.369666,-0.454581 0.66518,-0.768733 1.014686,-1.246112 0.178653,-0.244018 0.339622,-0.500568 0.509434,-0.750853 1.015638,-1.530276 1.94051,-3.118298 2.886097,-4.692616 0.879527,-1.33821 1.79952,-2.650428 2.808064,-3.894855 1.582576,-1.9566426 -0.520086,0.635372 1.121854,-1.3632576 0.881631,-1.073154 1.759083,-2.151694 2.749493,-3.128464 1.509987,-1.489752 3.029605,-2.978614 4.697761,-4.292192 0.208629,-0.178385 0.417259,-0.3567705 0.625888,-0.5351558 0.169707,-0.1634059 0.332728,-0.33409435 0.509122,-0.49021845 0.392544,-0.3474336 0.845969,-0.6148607 1.238638,-0.9619271 0,0 5.756097,-2.45212705 5.756097,-2.45212705 z"
       inkscape:connector-curvature="0" />
    <path
       style="fill:#ff0000;stroke:#ff0000;stroke-width:0.76613498;stroke-opacity:1"
       id="path2996"
       d="m 17.026315,-4.2861482 c 0.10002,0.5412655 0.331469,1.0491793 0.574522,1.5391837 0.494438,1.1542238 1.195081,2.19794665 1.897166,3.23226175 0.838429,1.24115415 1.632778,2.51030515 2.43002,3.77805415 0.689237,1.115294 1.508121,2.136434 2.355088,3.133558 0.161685,0.17754 0.320182,0.358052 0.485054,0.53262 0.540128,0.571891 0.416947,0.390845 0.923923,0.980006 0.371192,0.431366 0.714575,0.887508 1.053249,1.3445116 0.638937,0.991401 1.354513,1.922456 2.144728,2.796479 0.169632,0.169602 0.343233,0.335303 0.508894,0.508806 0.229063,0.239906 0.940887,1.035496 1.150856,1.262846 0.604875,0.654946 1.229324,1.291737 1.84662,1.934831 0.874662,0.897175 1.760463,1.790094 2.731401,2.584192 0.369596,0.30228 1.388828,1.066871 1.751175,1.340852 1.409665,1.077155 2.815817,2.163013 4.141621,3.343955 0.511064,0.455224 1.465433,1.359891 1.96881,1.833729 1.508557,1.43582 3.084812,2.795978 4.632335,4.188569 0.226328,0.193755 0.451624,0.388727 0.678984,0.581263 0.227822,0.192927 0.461904,0.378468 0.686545,0.57511 0.805974,0.705515 0.54359,0.536333 1.35376,1.204859 2.162679,1.784574 -0.843981,-0.766565 1.284747,1.050513 0.985644,0.82436 2.053252,1.54134 3.08133,2.309478 0.60272,0.437445 1.162906,0.929611 1.737223,1.403175 0.100947,0.08884 0.209011,0.170161 0.302842,0.266527 0.117686,0.120865 0.219607,0.256213 0.33021,0.383626 0.43741,0.503891 0.874487,1.005548 1.342894,1.480775 0.377849,0.391301 0.829621,0.695827 1.219937,1.072337 0.201852,0.142115 0.398805,0.288814 0.597336,0.436415 0.202797,0.190686 0.324184,0.444338 0.492943,0.662205 0.08419,0.108697 0.232328,0.271337 0.322178,0.372256 0.367638,0.404444 0.779598,0.762164 1.193334,1.117449 0.430064,0.361151 0.879802,0.706051 1.283859,1.096997 0.326744,0.332512 0.701298,0.622407 1.001614,0.979748 0.121484,0.146135 0.221124,0.273066 0.404441,0.33141 0.104135,0.100971 0.212928,0.108351 0.32816,0.191796 0,0 -5.257522,3.414956 -5.257522,3.414956 l 0,0 c -0.117824,-0.04683 -0.209015,-0.134165 -0.321256,-0.191701 -0.20146,-0.151871 -0.362925,-0.328889 -0.498525,-0.542864 -0.255993,-0.344445 -0.568607,-0.648538 -0.879438,-0.942073 -0.424954,-0.366039 -0.858472,-0.721968 -1.286714,-1.08427 -0.416806,-0.384401 -0.86542,-0.735805 -1.233923,-1.17046 -0.272842,-0.296136 -0.506513,-0.638329 -0.827736,-0.883481 -0.217381,-0.161278 -0.425015,-0.33934 -0.613949,-0.533258 -0.371498,-0.384976 -0.738055,-0.774533 -1.086827,-1.180689 -0.621491,-0.708221 -1.213801,-1.455781 -1.969966,-2.027283 -0.58548,-0.449353 -1.129486,-0.945758 -1.683991,-1.432441 -0.57909,-0.478348 -1.141507,-0.97736 -1.72304,-1.452563 C 47.682633,37.375835 47.47597,37.223615 47.278095,37.06045 47.076349,36.894093 46.881092,36.719976 46.682591,36.549739 46.265085,36.18807 45.839068,35.83628 45.424594,35.471122 45.204477,35.277197 44.993238,35.073336 44.774558,34.877784 44.096552,34.271481 43.39407,33.694224 42.707204,33.098217 40.947077,31.4531 43.156918,33.531183 41.40788,31.845462 40.355122,30.830814 39.271158,29.846224 38.282577,28.76649 37.325644,27.832762 36.36085,26.915478 35.328443,26.064614 34.51527,25.394433 34.030028,25.039688 33.174289,24.428518 32.830163,24.182742 32.481336,23.943649 32.13486,23.701214 31.761035,23.439459 30.65089,22.669161 30.275424,22.379335 29.263456,21.598188 28.376873,20.672972 27.468843,19.77718 26.838817,19.141641 26.23883,18.479945 25.613679,17.839865 24.817022,17.024183 25.167476,17.405789 24.385569,16.639422 24.209574,16.466925 24.038278,16.289672 23.864632,16.114798 23.029707,15.24433 22.195286,14.363592 21.581524,13.31547 21.267328,12.870081 20.958966,12.41006 20.619925,11.983319 20.192,11.444705 19.697802,10.962118 19.242924,10.447449 18.786454,9.9371744 18.319721,9.4264484 17.903547,8.8817364 17.600774,8.4854494 17.45045,8.2313894 17.18893,7.8076174 17.071669,7.6176064 16.956357,7.4263934 16.84007,7.2357824 16.58449,6.8307444 16.316435,6.4335994 16.066264,6.0251794 15.539911,5.1658774 15.067521,4.2726184 14.479329,3.4515674 13.728535,2.4200824 12.929826,1.4154892 12.303843,0.30019665 c -0.291428,-0.5011016 -0.524486,-1.0313724 -0.743582,-1.56794555 0,0 5.466054,-3.0183993 5.466054,-3.0183993 z"
       inkscape:connector-curvature="0" />
  </g>
</svg>
